<svg width="100%" height="39.655" version="1.1" id="Layer_1" xmlns="http://www.w3.org/2000/svg" x="0px" y="0px"
     viewBox="0 0 98.91 39.59" style="enable-background:new 0 0 98.91 39.59;" xml:space="preserve">
<style type="text/css">
	.st0{fill:#CEC7DF;}
	.st1{fill:#9686B9;}
</style>
  <g>
	<g>
		<g>
			<rect x="36.51" y="20.5" class="st0" width="61.59" height="0.61"/>
		</g>
    <g>
			<path class="st0" d="M41.81,30.36h-3.62l-0.82,2.23h-0.71l3.01-7.96h0.64l3.01,7.96h-0.7L41.81,30.36z M38.4,29.79h3.19L40,25.45
				L38.4,29.79z"/>
      <path class="st0" d="M51.83,30.11c-0.09,0.84-0.39,1.48-0.9,1.92c-0.51,0.44-1.19,0.67-2.03,0.67c-0.59,0-1.11-0.15-1.57-0.44
				c-0.45-0.3-0.8-0.71-1.05-1.26c-0.25-0.54-0.37-1.16-0.38-1.86v-1.03c0-0.71,0.12-1.33,0.37-1.88c0.25-0.55,0.6-0.97,1.07-1.27
				c0.46-0.3,1-0.45,1.6-0.45c0.85,0,1.53,0.23,2.02,0.69c0.5,0.46,0.78,1.1,0.86,1.91h-0.68c-0.17-1.35-0.9-2.03-2.2-2.03
				c-0.72,0-1.3,0.27-1.73,0.81c-0.43,0.54-0.64,1.29-0.64,2.24v0.97c0,0.92,0.21,1.65,0.63,2.2c0.42,0.55,0.98,0.82,1.69,0.82
				c0.71,0,1.24-0.17,1.59-0.51c0.36-0.34,0.58-0.84,0.66-1.52H51.83z"/>
      <path class="st0" d="M59.44,30.36h-3.62l-0.82,2.23H54.3l3.01-7.96h0.64l3.01,7.96h-0.7L59.44,30.36z M56.04,29.79h3.19
				l-1.6-4.34L56.04,29.79z"/>
      <path class="st0" d="M63.82,32.59v-7.96h2.23c0.65,0,1.24,0.15,1.75,0.45c0.52,0.3,0.92,0.72,1.21,1.28
				c0.29,0.55,0.44,1.19,0.44,1.89v0.73c0,0.71-0.14,1.34-0.43,1.89s-0.69,0.98-1.22,1.28c-0.52,0.3-1.12,0.45-1.8,0.45H63.82z
				 M64.49,25.21v6.82H66c0.84,0,1.51-0.28,2.02-0.83c0.51-0.55,0.76-1.31,0.76-2.26v-0.7c0-0.92-0.25-1.65-0.75-2.2
				c-0.5-0.55-1.16-0.83-1.98-0.83H64.49z"/>
      <path class="st0" d="M77.23,28.78h-3.72v3.25h4.28v0.57h-4.95v-7.96h4.93v0.58h-4.26v3h3.72V28.78z"/>
      <path class="st0" d="M81.78,24.63l2.94,7.03l2.95-7.03h0.9v7.96h-0.67v-3.47l0.05-3.55l-2.96,7.02h-0.52l-2.95-7l0.06,3.51v3.49
				h-0.67v-7.96H81.78z"/>
      <path class="st0" d="M94.6,28.97l2.43-4.34h0.78l-2.88,4.96v3h-0.67v-3l-2.87-4.96h0.8L94.6,28.97z"/>
		</g>
    <path class="st0" d="M89.04,17.26h-0.85l4.08-4.78l-3.72-4.91h1.94l2.81,3.72l3.17-3.72h0.86l-3.64,4.25l4.13,5.43h-1.95
			l-3.2-4.24L89.04,17.26z"/>
    <path class="st0" d="M43.77,7.58v7.08H43.7l-5.72-7.08h-1.54v9.68h0.74V9.62h0.06l6.22,7.64h1.03V7.58H43.77z"/>
    <path class="st0" d="M51.05,17.26c-0.72,0-1.39-0.13-2.01-0.38c-0.62-0.26-1.16-0.61-1.62-1.05c-0.46-0.44-0.82-0.96-1.08-1.56
			c-0.26-0.59-0.39-1.23-0.39-1.9c0-0.44,0.06-0.87,0.18-1.28c0.12-0.41,0.29-0.79,0.51-1.14c0.22-0.35,0.48-0.68,0.79-0.97
			s0.65-0.54,1.03-0.75c0.38-0.21,0.78-0.37,1.22-0.48c0.44-0.11,0.9-0.17,1.38-0.17s0.94,0.06,1.38,0.17
			c0.44,0.11,0.85,0.27,1.23,0.48c0.38,0.21,0.72,0.46,1.03,0.75c0.31,0.29,0.57,0.61,0.79,0.97c0.22,0.35,0.39,0.74,0.51,1.14
			c0.12,0.41,0.18,0.84,0.18,1.28c0,0.45-0.06,0.88-0.18,1.3c-0.12,0.42-0.29,0.81-0.51,1.17c-0.22,0.36-0.49,0.69-0.79,0.99
			c-0.31,0.3-0.65,0.55-1.03,0.77c-0.38,0.21-0.79,0.38-1.23,0.5C51.99,17.2,51.53,17.26,51.05,17.26z M51.05,16.8
			c0.53,0,1-0.11,1.41-0.33c0.41-0.22,0.75-0.53,1.03-0.92c0.28-0.4,0.49-0.86,0.63-1.4c0.14-0.54,0.21-1.13,0.21-1.77
			c0-0.64-0.07-1.22-0.21-1.75c-0.14-0.53-0.35-0.99-0.63-1.37c-0.28-0.38-0.62-0.68-1.03-0.89c-0.41-0.21-0.88-0.32-1.41-0.32
			c-0.54,0-1.01,0.11-1.42,0.32c-0.41,0.21-0.75,0.51-1.03,0.89s-0.49,0.84-0.62,1.37c-0.14,0.53-0.21,1.11-0.21,1.75
			c0,0.64,0.07,1.23,0.21,1.77c0.14,0.54,0.35,1.01,0.62,1.4s0.62,0.7,1.03,0.92C50.04,16.69,50.51,16.8,51.05,16.8z"/>
    <path class="st0" d="M57.63,7.58h3.9c0.52,0,0.99,0.06,1.42,0.17c0.43,0.11,0.8,0.28,1.11,0.49s0.55,0.46,0.72,0.75
			c0.17,0.29,0.26,0.61,0.26,0.96c0,0.27-0.03,0.51-0.08,0.72c-0.05,0.21-0.15,0.4-0.28,0.58c-0.14,0.18-0.32,0.35-0.54,0.5
			c-0.23,0.16-0.51,0.32-0.86,0.49v0.03c0.35,0.05,0.66,0.15,0.93,0.28c0.28,0.13,0.51,0.3,0.71,0.5c0.2,0.2,0.35,0.44,0.46,0.71
			c0.11,0.27,0.16,0.57,0.16,0.89c0,0.37-0.08,0.71-0.24,1.03c-0.16,0.32-0.38,0.6-0.68,0.83c-0.29,0.24-0.65,0.42-1.07,0.56
			c-0.42,0.14-0.88,0.2-1.4,0.2h-4.52V7.58z M59.26,11.94h2.07c0.33,0,0.62-0.05,0.87-0.14s0.47-0.22,0.64-0.38
			c0.18-0.16,0.31-0.36,0.4-0.58c0.09-0.23,0.14-0.47,0.14-0.73c0-0.28-0.05-0.54-0.16-0.77c-0.11-0.23-0.27-0.43-0.5-0.6
			c-0.23-0.17-0.51-0.29-0.86-0.38c-0.35-0.09-0.77-0.13-1.25-0.13h-1.34V11.94z M59.26,16.55h1.76c0.47,0,0.88-0.04,1.23-0.14
			c0.35-0.09,0.64-0.22,0.86-0.38c0.23-0.16,0.39-0.36,0.5-0.59c0.11-0.23,0.16-0.48,0.16-0.75c0-0.31-0.05-0.59-0.15-0.85
			s-0.26-0.49-0.48-0.68c-0.22-0.19-0.51-0.34-0.87-0.46c-0.36-0.11-0.8-0.17-1.32-0.17h-1.71V16.55z"/>
    <path class="st0" d="M67.57,7.58h1.63v9.68h-1.63V7.58z"/>
    <path class="st0" d="M79.09,7.58v0.63h-3.51v9.05h-1.63V8.21h-3.51V7.58H79.09z"/>
    <path class="st0" d="M87.08,7.58v0.63h-5.1v3.46h3.42v0.63h-3.42v4.34h5.1v0.63h-6.73V7.58H87.08z"/>
	</g>
    <g>
		<g>
			<path class="st1" d="M24.5,20.24c0,1.86-0.19,3.57-0.59,5.13c-0.4,1.55-0.98,2.89-1.77,4.02s-1.75,1.99-2.9,2.62
				c-0.83,0.45-1.76,0.73-2.8,0.86c-2.62-2.4-1.5-9.13,1.27-9.45c-1.21,3.3,0.34,5.33,1.65,5.44c2.74,0.25,5.28-4.36,5.1-9.99
				C24.49,19.31,24.5,19.77,24.5,20.24z"/>
      <path class="st0" d="M26.05,29.43c-2.81,3.09-6.93,4.93-8.91,3.93c-0.26-0.13-0.49-0.3-0.7-0.49c1.03-0.12,1.96-0.41,2.8-0.86
				c1.15-0.62,2.12-1.49,2.9-2.62s1.37-2.46,1.77-4.02c0.4-1.56,0.59-3.26,0.59-5.13c0-0.47-0.01-0.93-0.04-1.38v-0.02
				c-0.03-0.86-0.12-1.74-0.28-2.63c-0.72-3.95-2.93-8.59-5.02-9.78c0.5,0.13,0.98,0.3,1.46,0.49c0.02,0,0.04,0.01,0.06,0.02
				c2.21,0.94,6.02,3.24,7.98,8.06C30.57,19.7,29.53,25.61,26.05,29.43z"/>
      <path class="st1" d="M12.7,16.76c1.21-3.29-0.34-5.32-1.65-5.44c-2.65-0.24-5.11,4.06-5.11,9.42c-0.01-0.17-0.01-0.34-0.01-0.51
				c0-1.88,0.21-3.61,0.61-5.19c0.4-1.58,1-2.95,1.79-4.11c0.79-1.16,1.76-2.06,2.91-2.71c0.83-0.46,1.75-0.76,2.77-0.89
				C16.58,9.76,15.47,16.45,12.7,16.76z"/>
      <path class="st0" d="M11.25,33.74c-0.34-0.1-0.68-0.2-1-0.31c-0.03-0.01-0.05-0.02-0.09-0.03c-0.06-0.02-0.14-0.05-0.21-0.08
				c-0.06-0.03-0.14-0.06-0.21-0.08c-2.2-0.94-6.03-3.24-8-8.08c-1.44-3.56-1.2-7.81,0.52-11.32c0.06-0.14,0.14-0.27,0.21-0.41
				c0.15-0.27,0.3-0.54,0.47-0.8c0.31-0.49,0.64-0.95,1-1.4c0.12-0.15,0.24-0.29,0.37-0.44c0.01-0.02,0.03-0.03,0.04-0.05
				c0.02-0.02,0.04-0.05,0.06-0.07c2.81-3.04,6.89-4.85,8.85-3.85c0.27,0.14,0.51,0.31,0.73,0.52c-1.02,0.13-1.94,0.43-2.77,0.89
				c-1.15,0.65-2.12,1.55-2.91,2.71c-0.79,1.16-1.39,2.53-1.79,4.11c-0.4,1.58-0.61,3.31-0.61,5.19c0,0.17,0,0.34,0.01,0.51
				c0,0.15,0,0.3,0.01,0.45c0.01,0.57,0.05,1.14,0.13,1.72c0.02,0.18,0.04,0.36,0.08,0.55c0.02,0.16,0.05,0.32,0.08,0.48
				c0.01,0.07,0.03,0.15,0.04,0.22c0.07,0.41,0.16,0.81,0.26,1.2c0.1,0.39,0.21,0.76,0.34,1.13c0.01,0.04,0.02,0.07,0.04,0.11
				C7.92,29.78,9.63,32.81,11.25,33.74z"/>
		</g>
	</g>
</g>
</svg>
