<?xml version="1.0" encoding="utf-8"?>
<!-- Generator: Adobe Illustrator 27.1.1, SVG Export Plug-In . SVG Version: 6.00 Build 0)  -->
<svg version="1.1" id="Layer_1" xmlns="http://www.w3.org/2000/svg" xmlns:xlink="http://www.w3.org/1999/xlink" x="0px" y="0px"
	 viewBox="0 0 40 39.59" style="enable-background:new 0 0 98.91 39.59;" xml:space="preserve">
<style type="text/css">
	.st0{fill:#CEC7DF;}
	.st1{fill:#9686B9;}
</style>
<g>
	<g>
		<g>
			<path class="st1" d="M24.5,20.24c0,1.86-0.19,3.57-0.59,5.13c-0.4,1.55-0.98,2.89-1.77,4.02s-1.75,1.99-2.9,2.62
				c-0.83,0.45-1.76,0.73-2.8,0.86c-2.62-2.4-1.5-9.13,1.27-9.45c-1.21,3.3,0.34,5.33,1.65,5.44c2.74,0.25,5.28-4.36,5.1-9.99
				C24.49,19.31,24.5,19.77,24.5,20.24z"/>
			<path class="st0" d="M26.05,29.43c-2.81,3.09-6.93,4.93-8.91,3.93c-0.26-0.13-0.49-0.3-0.7-0.49c1.03-0.12,1.96-0.41,2.8-0.86
				c1.15-0.62,2.12-1.49,2.9-2.62s1.37-2.46,1.77-4.02c0.4-1.56,0.59-3.26,0.59-5.13c0-0.47-0.01-0.93-0.04-1.38v-0.02
				c-0.03-0.86-0.12-1.74-0.28-2.63c-0.72-3.95-2.93-8.59-5.02-9.78c0.5,0.13,0.98,0.3,1.46,0.49c0.02,0,0.04,0.01,0.06,0.02
				c2.21,0.94,6.02,3.24,7.98,8.06C30.57,19.7,29.53,25.61,26.05,29.43z"/>
			<path class="st1" d="M12.7,16.76c1.21-3.29-0.34-5.32-1.65-5.44c-2.65-0.24-5.11,4.06-5.11,9.42c-0.01-0.17-0.01-0.34-0.01-0.51
				c0-1.88,0.21-3.61,0.61-5.19c0.4-1.58,1-2.95,1.79-4.11c0.79-1.16,1.76-2.06,2.91-2.71c0.83-0.46,1.75-0.76,2.77-0.89
				C16.58,9.76,15.47,16.45,12.7,16.76z"/>
			<path class="st0" d="M11.25,33.74c-0.34-0.1-0.68-0.2-1-0.31c-0.03-0.01-0.05-0.02-0.09-0.03c-0.06-0.02-0.14-0.05-0.21-0.08
				c-0.06-0.03-0.14-0.06-0.21-0.08c-2.2-0.94-6.03-3.24-8-8.08c-1.44-3.56-1.2-7.81,0.52-11.32c0.06-0.14,0.14-0.27,0.21-0.41
				c0.15-0.27,0.3-0.54,0.47-0.8c0.31-0.49,0.64-0.95,1-1.4c0.12-0.15,0.24-0.29,0.37-0.44c0.01-0.02,0.03-0.03,0.04-0.05
				c0.02-0.02,0.04-0.05,0.06-0.07c2.81-3.04,6.89-4.85,8.85-3.85c0.27,0.14,0.51,0.31,0.73,0.52c-1.02,0.13-1.94,0.43-2.77,0.89
				c-1.15,0.65-2.12,1.55-2.91,2.71c-0.79,1.16-1.39,2.53-1.79,4.11c-0.4,1.58-0.61,3.31-0.61,5.19c0,0.17,0,0.34,0.01,0.51
				c0,0.15,0,0.3,0.01,0.45c0.01,0.57,0.05,1.14,0.13,1.72c0.02,0.18,0.04,0.36,0.08,0.55c0.02,0.16,0.05,0.32,0.08,0.48
				c0.01,0.07,0.03,0.15,0.04,0.22c0.07,0.41,0.16,0.81,0.26,1.2c0.1,0.39,0.21,0.76,0.34,1.13c0.01,0.04,0.02,0.07,0.04,0.11
				C7.92,29.78,9.63,32.81,11.25,33.74z"/>
		</g>
	</g>
</g>
</svg>
